<?xml version="1.0" encoding="iso-8859-1"?>
<!-- Generator: Adobe Illustrator 19.0.0, SVG Export Plug-In . SVG Version: 6.00 Build 0)  -->
<svg version="1.1" id="Layer_1" xmlns="http://www.w3.org/2000/svg" xmlns:xlink="http://www.w3.org/1999/xlink" x="0px" y="0px"
	 viewBox="0 0 512.001 512.001" style="enable-background:new 0 0 512.001 512.001;" xml:space="preserve">
<circle style="fill:#FF6D3B;" cx="255.999" cy="255.999" r="255.999"/>
<g>
	<path style="fill:#F2F2F2;" d="M85.25,312.874v-28.376l0,0v-28.376v-28.376v-28.375l0,0v-28.375v-28.376H56.875v28.376v28.375l0,0
		v28.375H28.499v28.376H0.124v7.536c0.798,27.136,5.825,53.207,14.434,77.589h13.941h28.376H85.25V312.874z"/>
	<rect x="255.509" y="114.244" style="fill:#F2F2F2;" width="28.376" height="28.376"/>
	<polygon style="fill:#F2F2F2;" points="312.256,341.25 312.256,312.874 312.256,284.499 312.256,284.499 312.256,256.123 
		312.256,227.748 312.256,199.373 312.256,199.373 312.256,170.998 312.256,142.622 283.881,142.622 255.505,142.622 
		255.505,170.998 255.505,199.373 255.505,199.373 255.505,227.748 255.505,256.123 227.131,256.123 227.131,227.748 
		227.131,199.373 198.755,199.373 198.755,170.998 170.38,170.998 170.38,199.373 170.38,199.373 170.38,227.748 170.38,256.123 
		170.38,284.499 142.004,284.499 142.004,256.123 142.004,227.748 142.004,199.373 113.629,199.373 113.629,227.748 
		113.629,256.123 85.253,256.123 85.253,284.499 85.253,284.499 85.253,312.874 85.253,341.25 113.629,341.25 142.004,341.25 
		170.38,341.25 198.755,341.25 227.131,341.25 227.131,341.25 255.505,341.25 283.881,341.25 	"/>
	<path style="fill:#F2F2F2;" d="M510.888,279.817v-23.692v-23.94c-0.137-1.482-0.284-2.961-0.447-4.436h-27.929v28.376V284.5
		h-28.376v-28.376v-28.376H425.76v-28.375l0,0v-28.375h-28.375v28.375l0,0v28.375v28.376H369.01v-28.376v-28.376h-28.376v28.376
		h-28.375v28.376V284.5l0,0v28.376v28.376h28.375h28.376h28.376h28.375h28.376h28.376h14.93
		C504.329,321.747,508.919,301.162,510.888,279.817z"/>
</g>
<g>
	<path style="fill:#F15424;" d="M0.53,272.276v-15.743h27.44v27.44H1.527c0.038,0.352,0.081,0.704,0.121,1.056H27.97v27.316H6.236
		c0.08,0.353,0.151,0.71,0.232,1.063H27.97v27.44H14.416c0.124,0.352,0.247,0.705,0.372,1.056H27.97v27.316h-1.615
		c0.176,0.354,0.351,0.709,0.528,1.063h1.087v2.188c0.346,0.678,0.711,1.345,1.063,2.018v-4.206h27.313v27.437H42.79
		c0.235,0.353,0.463,0.711,0.7,1.063h12.855v17.436c0.353,0.44,0.706,0.881,1.063,1.32v-18.756h27.437v27.316H64.701
		c0.312,0.351,0.622,0.706,0.937,1.056h19.205v19.206c0.352,0.316,0.709,0.628,1.063,0.943v-20.149h27.313v27.44H94.465
		c0.438,0.356,0.879,0.709,1.32,1.063h17.435v12.855c0.351,0.237,0.71,0.464,1.063,0.7v-13.555h27.437v27.316h-4.2
		c0.67,0.35,1.332,0.712,2.005,1.056h2.195v1.091c0.353,0.177,0.708,0.353,1.063,0.528v-1.62h27.312v13.184
		c0.353,0.126,0.709,0.25,1.063,0.374v-13.559h27.437v21.506c0.353,0.081,0.71,0.152,1.063,0.232v-21.738h27.313v26.325
		c0.354,0.04,0.708,0.083,1.063,0.122v-26.446h27.44v27.444h-15.745c5.383,0.337,10.806,0.53,16.275,0.53
		c5.469,0,10.891-0.192,16.275-0.53h-15.741v-27.444h27.437v26.446c0.354-0.039,0.709-0.082,1.063-0.122v-26.325h27.313v21.738
		c0.353-0.08,0.71-0.151,1.063-0.232v-21.506h27.437v13.559c0.354-0.125,0.709-0.249,1.063-0.374v-13.184h27.313v1.619
		c0.354-0.176,0.709-0.351,1.063-0.528v-1.091h2.195c0.673-0.344,1.336-0.706,2.005-1.056h-4.2v-27.316h27.437v13.555
		c0.353-0.235,0.711-0.463,1.063-0.7v-12.855h17.435c0.44-0.353,0.881-0.706,1.32-1.063h-18.759v-27.44h27.313v20.149
		c0.354-0.314,0.711-0.626,1.063-0.943v-19.205h19.205c0.314-0.349,0.624-0.705,0.937-1.056h-20.143v-27.316h27.437v18.754
		c0.356-0.438,0.709-0.879,1.063-1.32v-17.435h12.855c0.237-0.351,0.464-0.71,0.7-1.063h-13.555v-27.437h27.313v4.206
		c0.352-0.674,0.716-1.342,1.063-2.018v-2.188h1.087c0.177-0.353,0.353-0.708,0.528-1.063h-1.615v-27.316h13.181
		c0.125-0.351,0.249-0.704,0.371-1.056h-13.554v-27.44h21.502c0.081-0.352,0.152-0.71,0.232-1.063h-21.734v-27.316h26.322
		c0.04-0.352,0.083-0.704,0.121-1.056h-26.442v-27.44h27.44v15.741c0.337-5.383,0.53-10.806,0.53-16.275s-0.192-10.891-0.53-16.275
		v15.745h-27.44v-27.444h26.442c-0.038-0.352-0.081-0.704-0.121-1.056h-26.322v-27.316h21.734c-0.08-0.353-0.151-0.71-0.232-1.063
		h-21.502v-27.44h13.554c-0.124-0.352-0.247-0.705-0.371-1.056h-13.181v-27.316h1.615c-0.175-0.353-0.35-0.707-0.526-1.059h-1.089
		v-2.192c-0.346-0.678-0.711-1.345-1.063-2.018v4.21h-27.313v-27.444h13.553c-0.235-0.351-0.461-0.709-0.698-1.059h-12.855V95.784
		c-0.353-0.44-0.706-0.881-1.063-1.32v18.754h-27.437V85.903H447.3c-0.312-0.351-0.622-0.706-0.937-1.056h-19.205V65.642
		c-0.352-0.316-0.709-0.628-1.063-0.943v20.149h-27.313v-27.44h18.755c-0.438-0.356-0.879-0.709-1.32-1.063h-17.436V43.49
		c-0.351-0.237-0.71-0.464-1.063-0.7v13.555h-27.437V29.029h4.2c-0.67-0.35-1.333-0.712-2.005-1.056h-2.195v-1.091
		c-0.353-0.177-0.708-0.353-1.063-0.528v1.619h-27.313V14.789c-0.353-0.126-0.709-0.25-1.063-0.374v13.559h-27.437V6.467
		c-0.352-0.081-0.71-0.152-1.063-0.232v21.738H285.03V1.648c-0.354-0.04-0.708-0.083-1.063-0.122v26.446h-27.437V0.53h15.743
		C266.892,0.192,261.469,0,256.001,0c-5.469,0-10.892,0.192-16.276,0.53h15.746v27.444h-27.44V1.527
		c-0.354,0.039-0.709,0.082-1.063,0.122v26.325h-27.313V6.236c-0.353,0.08-0.71,0.151-1.063,0.232v21.506h-27.437V14.415
		c-0.354,0.125-0.709,0.249-1.063,0.374v13.184H142.78v-1.619c-0.354,0.176-0.709,0.351-1.063,0.528v1.091h-2.195
		c-0.673,0.344-1.336,0.706-2.005,1.056h4.2v27.316H114.28V42.79c-0.353,0.235-0.711,0.463-1.063,0.7v12.855H95.784
		c-0.44,0.353-0.881,0.706-1.32,1.063h18.754v27.44H85.906V64.698c-0.353,0.314-0.711,0.626-1.063,0.943v19.205H65.638
		c-0.314,0.349-0.624,0.705-0.937,1.056h20.143v27.316H57.408V94.465c-0.356,0.438-0.709,0.879-1.063,1.32v17.435H43.49
		c-0.236,0.35-0.463,0.708-0.698,1.059h13.553v27.444H29.033v-4.21c-0.352,0.674-0.716,1.342-1.063,2.018v2.192h-1.089
		c-0.177,0.352-0.351,0.706-0.526,1.059h1.615v27.316H14.788c-0.125,0.351-0.249,0.704-0.372,1.056H27.97v27.44H6.467
		c-0.081,0.353-0.152,0.71-0.232,1.063H27.97v27.316H1.648c-0.04,0.352-0.083,0.704-0.121,1.056H27.97v27.444H0.53v-15.746
		C0.192,245.108,0,250.531,0,256.001C0,261.469,0.192,266.892,0.53,272.276z M29.033,256.534h27.313v27.44H29.033V256.534z
		 M114.282,313.408h27.437v27.44h-27.437V313.408z M113.219,340.848H85.906v-27.44h27.313V340.848z M255.47,285.029v27.316h-27.44
		v-27.316H255.47z M228.031,283.973v-27.44h27.44v27.44H228.031z M256.534,285.029h27.437v27.316h-27.437V285.029z M256.534,283.973
		v-27.44h27.437v27.44H256.534z M285.032,256.534h27.313v27.44h-27.313V256.534z M285.032,255.47v-27.444h27.313v27.444H285.032z
		 M283.969,255.47h-27.437v-27.444h27.437V255.47z M256.534,226.972v-27.316h27.437v27.316H256.534z M255.47,226.972h-27.44v-27.316
		h27.44V226.972z M255.47,228.027v27.444h-27.44v-27.444H255.47z M226.968,255.47h-27.313v-27.444h27.313V255.47z M226.968,256.534
		v27.44h-27.313v-27.44H226.968z M198.592,283.973h-27.437v-27.44h27.437L198.592,283.973L198.592,283.973z M198.592,285.029v27.316
		h-27.437v-27.316H198.592z M199.655,285.029h27.313v27.316h-27.313V285.029z M226.968,313.408v27.44h-27.313v-27.44H226.968z
		 M228.031,313.408h27.44v27.44h-27.44V313.408z M255.47,341.903v27.316h-27.44v-27.316H255.47z M256.534,341.903h27.437v27.316
		h-27.437V341.903z M256.534,340.848v-27.44h27.437v27.44H256.534z M285.032,313.408h27.313v27.44h-27.313V313.408z
		 M285.032,312.345v-27.316h27.313v27.316H285.032z M313.408,285.029h27.437v27.316h-27.437V285.029z M313.408,283.973v-27.44
		h27.437v27.44H313.408z M341.907,256.534h27.313v27.44h-27.313V256.534z M341.907,255.47v-27.444h27.313v27.444H341.907z
		 M340.844,255.47h-27.437v-27.444h27.437V255.47z M313.408,226.972v-27.316h27.437v27.316H313.408z M312.345,226.972h-27.313
		v-27.316h27.313V226.972z M285.032,198.592v-27.44h27.313v27.44H285.032z M283.969,198.592h-27.437v-27.44h27.437V198.592z
		 M256.534,170.097v-27.316h27.437v27.316H256.534z M255.47,170.097h-27.44v-27.316h27.44V170.097z M255.47,171.152v27.44h-27.44
		v-27.44H255.47z M226.968,198.592h-27.313v-27.44h27.313V198.592z M226.968,199.655v27.316h-27.313v-27.316H226.968z
		 M198.592,226.972h-27.437v-27.316h27.437L198.592,226.972L198.592,226.972z M198.592,228.027v27.444h-27.437v-27.444H198.592z
		 M170.093,255.47h-27.313v-27.444h27.313V255.47z M170.093,256.534v27.44h-27.313v-27.44H170.093z M170.093,285.029v27.316h-27.313
		v-27.316H170.093z M170.093,313.408v27.44h-27.313v-27.44H170.093z M171.156,313.408h27.437v27.44h-27.437V313.408z
		 M198.592,341.903v27.316h-27.437v-27.316H198.592z M199.655,341.903h27.313v27.316h-27.313V341.903z M226.968,370.281v27.437
		h-27.313v-27.437H226.968z M228.031,370.281h27.44v27.437h-27.44V370.281z M256.534,370.281h27.437v27.437h-27.437V370.281z
		 M285.032,370.281h27.313v27.437h-27.313V370.281z M285.032,369.219v-27.316h27.313v27.316H285.032z M313.408,341.903h27.437
		v27.316h-27.437V341.903z M313.408,340.848v-27.44h27.437v27.44H313.408z M341.907,313.408h27.313v27.44h-27.313V313.408z
		 M341.907,312.345v-27.316h27.313v27.316H341.907z M370.282,285.029h27.437v27.316h-27.437V285.029z M370.282,283.973v-27.44
		h27.437v27.44H370.282z M370.282,255.47v-27.444h27.437v27.444H370.282z M370.282,226.972v-27.316h27.437v27.316H370.282z
		 M369.219,226.972h-27.313v-27.316h27.313V226.972z M341.907,198.592v-27.44h27.313v27.44H341.907z M340.844,198.592h-27.437
		v-27.44h27.437V198.592z M313.408,170.097v-27.316h27.437v27.316H313.408z M312.345,170.097h-27.313v-27.316h27.313V170.097z
		 M285.032,141.722v-27.444h27.313v27.444H285.032z M283.969,141.722h-27.437v-27.444h27.437V141.722z M255.47,141.722h-27.44
		v-27.444h27.44V141.722z M226.968,141.722h-27.313v-27.444h27.313V141.722z M226.968,142.781v27.316h-27.313v-27.316H226.968z
		 M198.592,170.097h-27.437v-27.316h27.437L198.592,170.097L198.592,170.097z M198.592,171.152v27.44h-27.437v-27.44H198.592z
		 M170.093,198.592h-27.313v-27.44h27.313V198.592z M170.093,199.655v27.316h-27.313v-27.316H170.093z M141.719,226.972h-27.437
		v-27.316h27.437V226.972z M141.719,228.027v27.444h-27.437v-27.444H141.719z M141.719,256.534v27.44h-27.437v-27.44H141.719z
		 M141.719,285.029v27.316h-27.437v-27.316H141.719z M141.719,341.903v27.316h-27.437v-27.316H141.719z M142.781,341.903h27.313
		v27.316h-27.313V341.903z M170.093,370.281v27.437h-27.313v-27.437H170.093z M171.156,370.281h27.437v27.437h-27.437V370.281z
		 M198.592,398.781v27.316h-27.437v-27.316H198.592z M199.655,398.781h27.313v27.316h-27.313V398.781z M228.031,398.781h27.44
		v27.316h-27.44V398.781z M256.534,398.781h27.437v27.316h-27.437V398.781z M285.032,398.781h27.313v27.316h-27.313V398.781z
		 M313.408,398.781h27.437v27.316h-27.437V398.781z M313.408,397.718v-27.437h27.437v27.437H313.408z M341.907,370.281h27.313
		v27.437h-27.313V370.281z M341.907,369.219v-27.316h27.313v27.316H341.907z M370.282,341.903h27.437v27.316h-27.437V341.903z
		 M370.282,340.848v-27.44h27.437v27.44H370.282z M398.781,313.408h27.313v27.44h-27.313V313.408z M398.781,312.345v-27.316h27.313
		v27.316H398.781z M398.781,283.973v-27.44h27.313v27.44H398.781z M398.781,255.47v-27.444h27.313v27.444H398.781z M398.781,226.972
		v-27.316h27.313v27.316H398.781z M398.781,198.592v-27.44h27.313v27.44H398.781z M397.718,198.592h-27.437v-27.44h27.437V198.592z
		 M370.282,170.097v-27.316h27.437v27.316H370.282z M369.219,170.097h-27.313v-27.316h27.313V170.097z M341.907,141.722v-27.444
		h27.313v27.444H341.907z M340.844,141.722h-27.437v-27.444h27.437V141.722z M313.408,113.219V85.903h27.437v27.316H313.408z
		 M312.345,113.219h-27.313V85.903h27.313V113.219z M283.969,113.219h-27.437V85.903h27.437V113.219z M255.47,113.219h-27.44V85.903
		h27.44V113.219z M226.968,113.219h-27.313V85.903h27.313V113.219z M198.592,113.219h-27.437V85.903h27.437L198.592,113.219
		L198.592,113.219z M198.592,114.278v27.444h-27.437v-27.444C171.155,114.278,198.592,114.278,198.592,114.278z M170.093,141.722
		h-27.313v-27.444h27.313V141.722z M170.093,142.781v27.316h-27.313v-27.316H170.093z M141.719,170.097h-27.437v-27.316h27.437
		V170.097z M141.719,171.152v27.44h-27.437v-27.44H141.719z M113.219,198.592H85.906v-27.44h27.313V198.592z M113.219,199.655
		v27.316H85.906v-27.316H113.219z M113.219,228.027v27.444H85.906v-27.444H113.219z M113.219,256.534v27.44H85.906v-27.44H113.219z
		 M113.219,285.029v27.316H85.906v-27.316H113.219z M84.844,312.345H57.408v-27.316h27.437V312.345z M84.844,313.408v27.44H57.408
		v-27.44H84.844z M84.844,341.903v27.316H57.408v-27.316H84.844z M85.906,341.903h27.313v27.316H85.906V341.903z M113.219,370.281
		v27.437H85.906v-27.437H113.219z M114.282,370.281h27.437v27.437h-27.437V370.281z M141.719,398.781v27.316h-27.437v-27.316
		H141.719z M142.781,398.781h27.313v27.316h-27.313V398.781z M170.093,427.153v27.44h-27.313v-27.44H170.093z M171.156,427.153
		h27.437v27.44h-27.437V427.153z M199.655,427.153h27.313v27.44h-27.313V427.153z M228.031,427.153h27.44v27.44h-27.44V427.153z
		 M256.534,427.153h27.437v27.44h-27.437V427.153z M285.032,427.153h27.313v27.44h-27.313V427.153z M313.408,427.153h27.437v27.44
		h-27.437V427.153z M341.907,427.153h27.313v27.44h-27.313V427.153z M341.907,426.097v-27.316h27.313v27.316H341.907z
		 M370.282,398.781h27.437v27.316h-27.437V398.781z M370.282,397.718v-27.437h27.437v27.437H370.282z M398.781,370.281h27.313
		v27.437h-27.313V370.281z M398.781,369.219v-27.316h27.313v27.316H398.781z M427.156,341.903h27.437v27.316h-27.437V341.903z
		 M427.156,340.848v-27.44h27.437v27.44H427.156z M427.156,312.345v-27.316h27.437v27.316H427.156z M427.156,283.973v-27.44h27.437
		v27.44H427.156z M427.156,255.47v-27.444h27.437v27.444H427.156z M427.156,226.972v-27.316h27.437v27.316H427.156z
		 M427.156,198.592v-27.44h27.437v27.44H427.156z M427.156,170.097v-27.316h27.437v27.316H427.156z M426.094,170.097h-27.313
		v-27.316h27.313V170.097z M398.781,141.722v-27.444h27.313v27.444H398.781z M397.718,141.722h-27.437v-27.444h27.437V141.722z
		 M370.282,113.219V85.903h27.437v27.316H370.282z M369.219,113.219h-27.313V85.903h27.313V113.219z M341.907,84.847v-27.44h27.313
		v27.44H341.907z M340.844,84.847h-27.437v-27.44h27.437V84.847z M312.345,84.847h-27.313v-27.44h27.313V84.847z M283.969,84.847
		h-27.437v-27.44h27.437V84.847z M255.47,84.847h-27.44v-27.44h27.44V84.847z M226.968,84.847h-27.313v-27.44h27.313V84.847z
		 M198.592,84.847h-27.437v-27.44h27.437L198.592,84.847L198.592,84.847z M170.093,84.847h-27.313v-27.44h27.313V84.847z
		 M170.093,85.903v27.316h-27.313V85.903H170.093z M141.719,113.219h-27.437V85.903h27.437V113.219z M141.719,114.278v27.444
		h-27.437v-27.444C114.282,114.278,141.719,114.278,141.719,114.278z M113.219,141.722H85.906v-27.444h27.313V141.722z
		 M113.219,142.781v27.316H85.906v-27.316H113.219z M84.844,170.097H57.408v-27.316h27.437V170.097z M84.844,171.152v27.44H57.408
		v-27.44H84.844z M84.844,199.655v27.316H57.408v-27.316H84.844z M84.844,228.027v27.444H57.408v-27.444H84.844z M84.844,256.534
		v27.44H57.408v-27.44H84.844z M29.033,285.029h27.313v27.316H29.033V285.029z M29.033,313.408h27.313v27.44H29.033V313.408z
		 M29.033,369.219v-27.316h27.313v27.316H29.033z M57.408,397.718v-27.437h27.437v27.437H57.408z M85.906,426.097v-27.316h27.313
		v27.316H85.906z M114.282,454.592v-27.44h27.437v27.44H114.282z M142.781,482.971v-27.316h27.313v27.316H142.781z M171.156,482.971
		v-27.316h27.437v27.316H171.156z M199.655,482.971v-27.316h27.313v27.316H199.655z M228.031,482.971v-27.316h27.44v27.316H228.031z
		 M256.534,482.971v-27.316h27.437v27.316H256.534z M285.032,482.971v-27.316h27.313v27.316H285.032z M313.408,482.971v-27.316
		h27.437v27.316H313.408z M369.219,482.971h-27.313v-27.316h27.313V482.971z M397.718,454.592h-27.437v-27.44h27.437V454.592z
		 M426.094,426.097h-27.313v-27.316h27.313V426.097z M454.593,397.718h-27.437v-27.437h27.437V397.718z M482.968,369.219h-27.313
		v-27.316h27.313V369.219z M482.968,340.848h-27.313v-27.44h27.313V340.848z M482.968,312.345h-27.313v-27.316h27.313V312.345z
		 M482.968,283.973h-27.313v-27.44h27.313V283.973z M482.968,255.47h-27.313v-27.444h27.313V255.47z M482.968,226.972h-27.313
		v-27.316h27.313V226.972z M482.968,198.592h-27.313v-27.44h27.313V198.592z M482.968,142.781v27.316h-27.313v-27.316H482.968z
		 M454.593,114.278v27.444h-27.437v-27.444C427.156,114.278,454.593,114.278,454.593,114.278z M426.094,85.903v27.316h-27.313
		V85.903H426.094z M397.718,57.408v27.44h-27.437v-27.44H397.718z M369.219,29.029v27.316h-27.313V29.029H369.219z M340.844,29.029
		v27.316h-27.437V29.029H340.844z M312.345,29.029v27.316h-27.313V29.029H312.345z M283.969,29.029v27.316h-27.437V29.029H283.969z
		 M255.47,29.029v27.316h-27.44V29.029H255.47z M226.968,29.029v27.316h-27.313V29.029H226.968z M198.592,29.029v27.316h-27.437
		V29.029H198.592z M142.781,29.029h27.313v27.316h-27.313V29.029z M114.282,57.408h27.437v27.44h-27.437V57.408z M85.906,85.903
		h27.313v27.316H85.906V85.903z M57.408,114.278h27.437v27.444H57.408V114.278z M29.033,142.781h27.313v27.316H29.033V142.781z
		 M29.033,171.152h27.313v27.44H29.033V171.152z M29.033,199.655h27.313v27.316H29.033V199.655z M29.033,228.027h27.313v27.444
		H29.033V228.027z"/>
	<path style="fill:#F15424;" d="M14.816,341.903C50.127,441.022,144.755,512,256.001,512s205.874-70.977,241.184-170.097
		L14.816,341.903L14.816,341.903z"/>
</g>
<g>
</g>
<g>
</g>
<g>
</g>
<g>
</g>
<g>
</g>
<g>
</g>
<g>
</g>
<g>
</g>
<g>
</g>
<g>
</g>
<g>
</g>
<g>
</g>
<g>
</g>
<g>
</g>
<g>
</g>
</svg>
